<svg width="36" height="59" viewBox="0 0 36 59" fill="none" xmlns="http://www.w3.org/2000/svg">
<path d="M28.2943 0C30.3813 0 32.1873 0.795035 33.7124 2.38511C35.2375 3.97518 36 5.85816 36 8.03404V50.966C36 53.1418 35.2375 55.0248 33.7124 56.6149C32.1873 58.205 30.3813 59 28.2943 59H7.70569C5.53846 59 3.71237 58.205 2.22742 56.6149C0.742475 55.0248 0 53.1418 0 50.966V8.03404C0 5.85816 0.742475 3.97518 2.22742 2.38511C3.71237 0.795035 5.53846 0 7.70569 0H28.2943ZM23.1171 53.6021V50.966H12.8829V53.6021H23.1171ZM31.4247 45.5681V8.03404H4.45485V45.5681H31.4247Z" fill="#FEB119"/>
</svg>
