<svg width="35" height="35" viewBox="0 0 35 35" fill="none" xmlns="http://www.w3.org/2000/svg">
<path fill-rule="evenodd" clip-rule="evenodd" d="M25.3969 20.9737C24.9623 20.7565 22.8317 19.7094 22.435 19.5635C22.0383 19.4192 21.7496 19.3477 21.4594 19.7823C21.1706 20.214 20.3408 21.191 20.0885 21.4798C19.8348 21.77 19.5825 21.805 19.1494 21.5892C18.7163 21.3704 17.3192 20.914 15.664 19.4381C14.3763 18.289 13.5056 16.87 13.2533 16.4354C13.001 16.0023 13.2256 15.7675 13.4429 15.5517C13.6383 15.3577 13.876 15.0456 14.0933 14.7933C14.3106 14.5396 14.3821 14.3587 14.5265 14.0685C14.6723 13.7798 14.5994 13.5275 14.49 13.3102C14.3821 13.0929 13.5158 10.9594 13.1542 10.0917C12.8027 9.24729 12.4454 9.3625 12.18 9.34791C11.9263 9.33625 11.6375 9.33333 11.3488 9.33333C11.06 9.33333 10.5904 9.44125 10.1938 9.87583C9.79563 10.309 8.67708 11.3575 8.67708 13.491C8.67708 15.6231 10.2288 17.6837 10.446 17.974C10.6633 18.2627 13.5013 22.6406 17.8485 24.5175C18.884 24.9637 19.6904 25.2306 20.319 25.429C21.3573 25.76 22.3023 25.7133 23.049 25.601C23.8802 25.4771 25.6127 24.5525 25.9744 23.5404C26.3346 22.5283 26.3346 21.6606 26.2267 21.4798C26.1188 21.299 25.83 21.191 25.3954 20.9737H25.3969ZM17.4898 31.7698H17.484C14.9019 31.7703 12.3672 31.0761 10.1456 29.7602L9.62063 29.4481L4.16354 30.8802L5.62042 25.5602L5.27771 25.0148C3.83416 22.717 3.07022 20.0576 3.07417 17.344C3.07708 9.39604 9.54333 2.92979 17.4956 2.92979C21.3456 2.92979 24.9652 4.43187 27.6865 7.15604C29.0287 8.49272 30.0925 10.0823 30.8164 11.8328C31.5404 13.5832 31.91 15.4599 31.904 17.3542C31.901 25.3021 25.4348 31.7698 17.4898 31.7698ZM29.7573 5.08667C28.1505 3.46926 26.2387 2.18682 24.1326 1.31367C22.0266 0.440508 19.7682 -0.00600556 17.4883 -1.27623e-06C7.93042 -1.27623e-06 0.14875 7.78021 0.145833 17.3425C0.144375 20.3992 0.942083 23.3829 2.46021 26.0123L0 35L9.19333 32.5879C11.7365 33.9735 14.5864 34.6995 17.4825 34.6996H17.4898C27.0477 34.6996 34.8294 26.9194 34.8323 17.3556C34.8393 15.0766 34.3944 12.8189 33.5233 10.713C32.6522 8.60703 31.3722 6.69473 29.7573 5.08667Z" fill="#FEB119"/>
</svg>
